<svg xmlns="http://www.w3.org/2000/svg" viewBox="0 0 320 360">
<defs>
 <linearGradient id="gold" x1="0" y1="0" x2="1" y2="1"><stop stop-color="#fff1bd"/><stop offset=".24" stop-color="#e5bd59"/><stop offset=".58" stop-color="#8b5c16"/><stop offset="1" stop-color="#f0d27e"/></linearGradient>
 <linearGradient id="violet" x1="0" y1="0" x2="0" y2="1"><stop stop-color="#b58cff"/><stop offset=".55" stop-color="#6d34ff"/><stop offset="1" stop-color="#24103f"/></linearGradient>
 <filter id="glow"><feGaussianBlur stdDeviation="7"/></filter>
</defs>
<g fill="none" stroke-linejoin="round">
 <path d="M160 18 184 82 222 54 211 111 273 92 231 142 294 157 231 178 258 238 198 214 203 302 168 246 160 342 152 246 117 302 122 214 62 238 89 178 26 157 89 142 47 92 109 111 98 54 136 82Z" fill="#07060a" stroke="url(#gold)" stroke-width="5"/>
 <path d="M160 64 181 121 210 111 190 153 218 170 186 181 160 282 134 181 102 170 130 153 110 111 139 121Z" fill="url(#violet)" stroke="url(#gold)" stroke-width="4"/>
 <path d="M160 122 188 171 160 222 132 171Z" fill="#09070d" stroke="#f3d982" stroke-width="4"/>
 <path d="M160 143 176 171 160 201 144 171Z" fill="#8a55ff" stroke="#fff0b5" stroke-width="2.5"/>
 <path d="M56 130 13 98 37 157 13 216 56 184" stroke="url(#gold)" stroke-width="4"/>
 <path d="M264 130 307 98 283 157 307 216 264 184" stroke="url(#gold)" stroke-width="4"/>
</g>
<circle cx="160" cy="171" r="5" fill="#fff3c6" filter="url(#glow)"/>
</svg>